<mxfile host="app.diagrams.net" agent="Mozilla/5.0 (Windows NT 10.0; Win64; x64) AppleWebKit/537.36 (KHTML, like Gecko) Chrome/137.0.0.0 Safari/537.36" version="27.1.4">
  <diagram name="Página-1" id="lsETouDwFUDekIykg4qa">
    <mxGraphModel grid="1" page="1" gridSize="10" guides="1" tooltips="1" connect="1" arrows="1" fold="1" pageScale="1" pageWidth="1169" pageHeight="827" math="0" shadow="0">
      <root>
        <mxCell id="0" />
        <mxCell id="1" parent="0" />
        <mxCell id="Jb-baKvj7o39kapnN0LS-2" value="" style="edgeStyle=orthogonalEdgeStyle;html=1;verticalAlign=bottom;endArrow=open;endSize=8;strokeColor=#000000;rounded=0;entryX=0.5;entryY=0;entryDx=0;entryDy=0;fontStyle=1;exitX=0.507;exitY=0.822;exitDx=0;exitDy=0;exitPerimeter=0;strokeWidth=2;" edge="1" parent="1" source="C7BQReoUZfw_N20fpmN8-1" target="nxCYeTYg8iYEJ21qp6au-1">
          <mxGeometry relative="1" as="geometry">
            <mxPoint x="210" y="140" as="targetPoint" />
            <mxPoint x="210" y="80" as="sourcePoint" />
          </mxGeometry>
        </mxCell>
        <mxCell id="nxCYeTYg8iYEJ21qp6au-24" value="Compra Iniciada" style="edgeLabel;html=1;align=center;verticalAlign=middle;resizable=0;points=[];fontStyle=1" connectable="0" vertex="1" parent="Jb-baKvj7o39kapnN0LS-2">
          <mxGeometry x="-0.1611" y="1" relative="1" as="geometry">
            <mxPoint as="offset" />
          </mxGeometry>
        </mxCell>
        <mxCell id="6_0DR48UAZSCRFRTV4Fp-1" value="Compra" style="shape=umlFrame;whiteSpace=wrap;html=1;pointerEvents=0;width=90;height=30;fontStyle=1" vertex="1" parent="1">
          <mxGeometry x="70" y="30" width="740" height="570" as="geometry" />
        </mxCell>
        <mxCell id="nxCYeTYg8iYEJ21qp6au-1" value="Pendente" style="rounded=1;whiteSpace=wrap;html=1;arcSize=40;fontColor=#000000;fillColor=#FFFFFF;strokeColor=#000000;fontStyle=1;strokeWidth=2;" vertex="1" parent="1">
          <mxGeometry x="150" y="150" width="120" height="40" as="geometry" />
        </mxCell>
        <mxCell id="nxCYeTYg8iYEJ21qp6au-2" value="" style="edgeStyle=orthogonalEdgeStyle;html=1;verticalAlign=bottom;endArrow=open;endSize=8;strokeColor=#000000;rounded=0;exitX=0.5;exitY=1;exitDx=0;exitDy=0;entryX=0;entryY=0.5;entryDx=0;entryDy=0;fontStyle=1;strokeWidth=2;" edge="1" parent="1" source="nxCYeTYg8iYEJ21qp6au-1" target="nxCYeTYg8iYEJ21qp6au-15">
          <mxGeometry relative="1" as="geometry">
            <mxPoint x="345" y="245" as="targetPoint" />
          </mxGeometry>
        </mxCell>
        <mxCell id="FWS_vDh95MsRp_Z_sAMs-5" style="edgeStyle=orthogonalEdgeStyle;rounded=0;orthogonalLoop=1;jettySize=auto;html=1;exitX=0.5;exitY=1;exitDx=0;exitDy=0;endArrow=open;endFill=0;fontStyle=1;strokeWidth=2;" edge="1" parent="1" source="nxCYeTYg8iYEJ21qp6au-4" target="FWS_vDh95MsRp_Z_sAMs-1">
          <mxGeometry relative="1" as="geometry" />
        </mxCell>
        <mxCell id="nxCYeTYg8iYEJ21qp6au-4" value="Pendente" style="rounded=1;whiteSpace=wrap;html=1;arcSize=40;fontColor=#000000;fillColor=#FFFFFF;strokeColor=#000000;fontStyle=1;strokeWidth=2;" vertex="1" parent="1">
          <mxGeometry x="257.5" y="330" width="120" height="40" as="geometry" />
        </mxCell>
        <mxCell id="IKD3PouUyPMCS_vxUUA8-17" style="edgeStyle=orthogonalEdgeStyle;rounded=0;orthogonalLoop=1;jettySize=auto;html=1;entryX=0.5;entryY=0;entryDx=0;entryDy=0;strokeColor=#000000;endArrow=open;endFill=0;fontStyle=1;strokeWidth=2;" edge="1" parent="1" source="nxCYeTYg8iYEJ21qp6au-5" target="C7BQReoUZfw_N20fpmN8-2">
          <mxGeometry relative="1" as="geometry">
            <mxPoint x="705" y="335" as="targetPoint" />
          </mxGeometry>
        </mxCell>
        <mxCell id="nxCYeTYg8iYEJ21qp6au-5" value="Cancelado" style="rounded=1;whiteSpace=wrap;html=1;arcSize=40;fontColor=#000000;fillColor=#FFFFFF;strokeColor=#000000;fontStyle=1;strokeWidth=2;" vertex="1" parent="1">
          <mxGeometry x="645" y="200" width="120" height="40" as="geometry" />
        </mxCell>
        <mxCell id="nxCYeTYg8iYEJ21qp6au-15" value="" style="rhombus;whiteSpace=wrap;html=1;fontColor=#000000;fillColor=#FFFFFF;strokeColor=#000000;fontStyle=1;strokeWidth=2;" vertex="1" parent="1">
          <mxGeometry x="295" y="200" width="45" height="40" as="geometry" />
        </mxCell>
        <mxCell id="nxCYeTYg8iYEJ21qp6au-17" value="Efetuar pagamento" style="edgeStyle=orthogonalEdgeStyle;html=1;align=left;verticalAlign=top;endArrow=open;endSize=8;strokeColor=#000000;rounded=0;fontStyle=1;strokeWidth=2;" edge="1" parent="1" source="nxCYeTYg8iYEJ21qp6au-15" target="nxCYeTYg8iYEJ21qp6au-4">
          <mxGeometry x="-0.2222" y="20" relative="1" as="geometry">
            <mxPoint x="505" y="290" as="targetPoint" />
            <mxPoint as="offset" />
          </mxGeometry>
        </mxCell>
        <mxCell id="nxCYeTYg8iYEJ21qp6au-16" value="Cancelar pedido" style="edgeStyle=orthogonalEdgeStyle;html=1;align=left;verticalAlign=bottom;endArrow=open;endSize=8;strokeColor=#000000;rounded=0;endFill=0;fontStyle=1;strokeWidth=2;" edge="1" parent="1" source="nxCYeTYg8iYEJ21qp6au-15" target="nxCYeTYg8iYEJ21qp6au-5">
          <mxGeometry x="-0.037" relative="1" as="geometry">
            <mxPoint x="645" y="210" as="targetPoint" />
            <mxPoint as="offset" />
          </mxGeometry>
        </mxCell>
        <mxCell id="FWS_vDh95MsRp_Z_sAMs-6" style="edgeStyle=orthogonalEdgeStyle;rounded=0;orthogonalLoop=1;jettySize=auto;html=1;exitX=0;exitY=0.5;exitDx=0;exitDy=0;strokeColor=#000000;endArrow=open;endFill=0;fontStyle=1;strokeWidth=2;" edge="1" parent="1" source="FWS_vDh95MsRp_Z_sAMs-1" target="FWS_vDh95MsRp_Z_sAMs-3">
          <mxGeometry relative="1" as="geometry" />
        </mxCell>
        <mxCell id="FWS_vDh95MsRp_Z_sAMs-9" style="edgeStyle=orthogonalEdgeStyle;rounded=0;orthogonalLoop=1;jettySize=auto;html=1;exitX=1;exitY=0.5;exitDx=0;exitDy=0;entryX=0;entryY=0.5;entryDx=0;entryDy=0;strokeColor=#000000;endArrow=open;endFill=0;fontStyle=1;strokeWidth=2;" edge="1" parent="1" source="FWS_vDh95MsRp_Z_sAMs-1" target="FWS_vDh95MsRp_Z_sAMs-8">
          <mxGeometry relative="1" as="geometry" />
        </mxCell>
        <mxCell id="FWS_vDh95MsRp_Z_sAMs-1" value="" style="rhombus;whiteSpace=wrap;html=1;fontColor=#000000;fillColor=#FFFFFF;strokeColor=#000000;fontStyle=1;strokeWidth=2;" vertex="1" parent="1">
          <mxGeometry x="295" y="460" width="45" height="40" as="geometry" />
        </mxCell>
        <mxCell id="FWS_vDh95MsRp_Z_sAMs-13" style="edgeStyle=orthogonalEdgeStyle;rounded=0;orthogonalLoop=1;jettySize=auto;html=1;exitX=0;exitY=0.5;exitDx=0;exitDy=0;entryX=0;entryY=0.5;entryDx=0;entryDy=0;strokeColor=#000000;fontStyle=1;endArrow=open;endFill=0;strokeWidth=2;" edge="1" parent="1" source="FWS_vDh95MsRp_Z_sAMs-3" target="nxCYeTYg8iYEJ21qp6au-1">
          <mxGeometry relative="1" as="geometry" />
        </mxCell>
        <mxCell id="FWS_vDh95MsRp_Z_sAMs-3" value="Não concluído" style="rounded=1;whiteSpace=wrap;html=1;arcSize=40;fontColor=#000000;fillColor=#FFFFFF;strokeColor=#000000;fontStyle=1;strokeWidth=2;" vertex="1" parent="1">
          <mxGeometry x="155" y="530" width="120" height="40" as="geometry" />
        </mxCell>
        <mxCell id="FWS_vDh95MsRp_Z_sAMs-4" value="Processar pagamento" style="text;whiteSpace=wrap;html=1;fontStyle=1" vertex="1" parent="1">
          <mxGeometry x="345" y="400" width="140" height="40" as="geometry" />
        </mxCell>
        <mxCell id="FWS_vDh95MsRp_Z_sAMs-7" value="Erro API" style="text;whiteSpace=wrap;html=1;fontStyle=1" vertex="1" parent="1">
          <mxGeometry x="205" y="450" width="140" height="40" as="geometry" />
        </mxCell>
        <mxCell id="FWS_vDh95MsRp_Z_sAMs-11" style="edgeStyle=orthogonalEdgeStyle;rounded=0;orthogonalLoop=1;jettySize=auto;html=1;exitX=1;exitY=0.5;exitDx=0;exitDy=0;entryX=0.5;entryY=1;entryDx=0;entryDy=0;strokeColor=#000000;endArrow=open;endFill=0;fontStyle=1;strokeWidth=2;" edge="1" parent="1" source="FWS_vDh95MsRp_Z_sAMs-8" target="C7BQReoUZfw_N20fpmN8-2">
          <mxGeometry relative="1" as="geometry">
            <mxPoint x="705" y="365" as="targetPoint" />
          </mxGeometry>
        </mxCell>
        <mxCell id="FWS_vDh95MsRp_Z_sAMs-8" value="Concluído" style="rounded=1;whiteSpace=wrap;html=1;arcSize=40;fontColor=#000000;fillColor=#FFFFFF;strokeColor=#000000;fontStyle=1;strokeWidth=2;" vertex="1" parent="1">
          <mxGeometry x="545" y="460" width="120" height="40" as="geometry" />
        </mxCell>
        <mxCell id="FWS_vDh95MsRp_Z_sAMs-10" value="Pagamento confirmado" style="text;whiteSpace=wrap;html=1;fontStyle=1" vertex="1" parent="1">
          <mxGeometry x="380" y="450" width="145" height="40" as="geometry" />
        </mxCell>
        <mxCell id="C7BQReoUZfw_N20fpmN8-1" value="" style="ellipse;html=1;shape=startState;fillColor=light-dark(#000000,#000000);strokeColor=none;strokeWidth=2;fontStyle=1" vertex="1" parent="1">
          <mxGeometry x="195" y="50" width="30" height="30" as="geometry" />
        </mxCell>
        <mxCell id="C7BQReoUZfw_N20fpmN8-2" value="" style="ellipse;html=1;shape=endState;fillColor=light-dark(#000000,#000000);strokeColor=default;strokeWidth=2;fontStyle=1" vertex="1" parent="1">
          <mxGeometry x="690" y="330" width="30" height="30" as="geometry" />
        </mxCell>
      </root>
    </mxGraphModel>
  </diagram>
</mxfile>
